<svg width="16" height="16" viewBox="0 0 16 16" fill="none" xmlns="http://www.w3.org/2000/svg">
<path d="M7.82193 2.42035C8.80332 2.42035 9.60144 3.18736 9.60144 4.1305C9.60144 5.0708 8.80332 5.83781 7.82193 5.83781C6.84054 5.83781 6.04243 5.0708 6.04243 4.1305C6.04243 3.18736 6.84054 2.42035 7.82193 2.42035ZM7.82193 8.25816C10.1926 8.25816 12.1199 6.40597 12.1199 4.1305C12.1199 1.85219 10.1926 0 7.82193 0C5.45123 0 3.52688 1.85219 3.52688 4.1305C3.52688 6.40597 5.45123 8.25816 7.82193 8.25816ZM9.56006 11.6273C10.435 11.4342 11.2775 11.1018 12.0549 10.6331C12.6432 10.278 12.8205 9.53083 12.451 8.96551C12.0786 8.39735 11.3041 8.22691 10.7129 8.58485C8.95408 9.6473 6.68979 9.6473 4.92802 8.58485C4.33978 8.22691 3.56235 8.39735 3.19285 8.96551C2.82335 9.53083 3.00071 10.278 3.58895 10.6331C4.36638 11.1018 5.20884 11.4342 6.08381 11.6273L3.68059 13.934C3.18989 14.4056 3.18989 15.1726 3.68059 15.6442C3.92889 15.88 4.24814 15.9993 4.57034 15.9993C4.89255 15.9993 5.21475 15.88 5.46305 15.6442L7.82193 13.3772L10.1838 15.6442C10.6745 16.1186 11.4696 16.1186 11.9633 15.6442C12.454 15.1726 12.454 14.4056 11.9633 13.934L9.56006 11.6273Z" fill="#F9FBFD"/>
</svg>
